<svg width="20" height="20" viewBox="0 0 20 20" fill="none" xmlns="http://www.w3.org/2000/svg">
<path fill-rule="evenodd" clip-rule="evenodd" d="M8.62755 3.75251C5.67006 3.75251 3.27255 6.15003 3.27255 9.10751C3.27255 12.065 5.67006 14.4625 8.62755 14.4625C11.585 14.4625 13.9825 12.065 13.9825 9.10751C13.9825 6.15003 11.585 3.75251 8.62755 3.75251ZM1.48755 9.10751C1.48755 5.1642 4.68424 1.96751 8.62755 1.96751C12.5709 1.96751 15.7675 5.1642 15.7675 9.10751C15.7675 13.0508 12.5709 16.2475 8.62755 16.2475C4.68424 16.2475 1.48755 13.0508 1.48755 9.10751Z" fill="white"/>
<path fill-rule="evenodd" clip-rule="evenodd" d="M12.4142 12.8943C12.7628 12.5457 13.3279 12.5457 13.6764 12.8943L17.2911 16.5089C17.6396 16.8575 17.6396 17.4226 17.2911 17.7711C16.9425 18.1196 16.3774 18.1196 16.0289 17.7711L12.4142 14.1565C12.0657 13.8079 12.0657 13.2428 12.4142 12.8943Z" fill="white"/>
</svg>
