<svg width="231" height="250" viewBox="0 0 231 250" fill="none" xmlns="http://www.w3.org/2000/svg">
<g filter="url(#filter0_d_210_11)">
<rect x="4" width="178" height="202" rx="16" fill="#454A58"/>
<circle cx="93" cy="101" r="54" fill="#8785DF"/>
<path d="M116.728 120.262C113.217 114.344 107.806 110.1 101.491 108.089C104.615 106.276 107.041 103.513 108.399 100.226C109.756 96.9383 109.969 93.3072 109.005 89.8902C108.04 86.4732 105.952 83.4593 103.061 81.3113C100.17 79.1633 96.6351 78 93 78C89.3649 78 85.8303 79.1633 82.939 81.3113C80.0477 83.4593 77.9596 86.4732 76.9953 89.8902C76.031 93.3072 76.2439 96.9383 77.6013 100.226C78.9587 103.513 81.3855 106.276 84.509 108.089C78.1943 110.098 72.7834 114.342 69.2721 120.262C69.1434 120.467 69.058 120.694 69.021 120.932C68.9839 121.169 68.9961 121.411 69.0566 121.644C69.1172 121.877 69.225 122.095 69.3736 122.287C69.5222 122.478 69.7086 122.639 69.9219 122.759C70.1352 122.879 70.3709 122.956 70.6153 122.986C70.8597 123.016 71.1078 122.998 71.3448 122.933C71.5819 122.867 71.8031 122.757 71.9956 122.607C72.188 122.457 72.3477 122.271 72.4652 122.06C76.8087 114.742 84.4859 110.372 93 110.372C101.514 110.372 109.191 114.742 113.535 122.06C113.652 122.271 113.812 122.457 114.004 122.607C114.197 122.757 114.418 122.867 114.655 122.933C114.892 122.998 115.14 123.016 115.385 122.986C115.629 122.956 115.865 122.879 116.078 122.759C116.291 122.639 116.478 122.478 116.626 122.287C116.775 122.095 116.883 121.877 116.943 121.644C117.004 121.411 117.016 121.169 116.979 120.932C116.942 120.694 116.857 120.467 116.728 120.262ZM80.0894 94.1892C80.0894 91.6997 80.8466 89.2662 82.2652 87.1963C83.6839 85.1264 85.7002 83.5131 88.0593 82.5605C90.4184 81.6078 93.0143 81.3585 95.5188 81.8442C98.0232 82.3299 100.324 83.5286 102.129 85.2889C103.935 87.0492 105.164 89.292 105.663 91.7336C106.161 94.1752 105.905 96.706 104.928 99.0059C103.951 101.306 102.296 103.272 100.173 104.655C98.0496 106.038 95.5535 106.776 93 106.776C89.577 106.772 86.2953 105.445 83.8749 103.085C81.4545 100.726 80.0931 97.5263 80.0894 94.1892Z" fill="white"/>
</g>
<path d="M179.974 184.977L174.058 178.022L165.719 185.406C167.922 187.48 172.184 191.632 171.614 191.649C171.044 191.666 169.54 193.852 170.317 195.969L179.17 205.69L198.323 225.801C203.261 231.836 213.857 244.167 216.742 245.222C219.466 246.218 221.55 247.105 224.119 245.331C223.942 245.421 224.085 245.254 224.582 244.986C224.426 245.111 224.272 245.226 224.119 245.331C224.441 245.166 225.821 244.145 228.039 241.315C231.661 236.692 228.537 234.166 227.781 232.762L206.34 207.726C199.466 200.561 185.425 185.955 184.25 184.849C183.076 183.743 180.91 184.474 179.974 184.977Z" fill="#8C93A0"/>
<g filter="url(#filter1_b_210_11)">
<circle cx="145.253" cy="145.359" r="44.9227" transform="rotate(-1.72319 145.253 145.359)" fill="#EDF3F7" fill-opacity="0.41"/>
<circle cx="145.253" cy="145.359" r="41.4227" transform="rotate(-1.72319 145.253 145.359)" stroke="#DBE0E7" stroke-width="7"/>
</g>
<defs>
<filter id="filter0_d_210_11" x="0" y="0" width="186" height="210" filterUnits="userSpaceOnUse" color-interpolation-filters="sRGB">
<feFlood flood-opacity="0" result="BackgroundImageFix"/>
<feColorMatrix in="SourceAlpha" type="matrix" values="0 0 0 0 0 0 0 0 0 0 0 0 0 0 0 0 0 0 127 0" result="hardAlpha"/>
<feOffset dy="4"/>
<feGaussianBlur stdDeviation="2"/>
<feComposite in2="hardAlpha" operator="out"/>
<feColorMatrix type="matrix" values="0 0 0 0 0 0 0 0 0 0 0 0 0 0 0 0 0 0 0.25 0"/>
<feBlend mode="normal" in2="BackgroundImageFix" result="effect1_dropShadow_210_11"/>
<feBlend mode="normal" in="SourceGraphic" in2="effect1_dropShadow_210_11" result="shape"/>
</filter>
<filter id="filter1_b_210_11" x="90.3301" y="90.436" width="109.846" height="109.846" filterUnits="userSpaceOnUse" color-interpolation-filters="sRGB">
<feFlood flood-opacity="0" result="BackgroundImageFix"/>
<feGaussianBlur in="BackgroundImageFix" stdDeviation="5"/>
<feComposite in2="SourceAlpha" operator="in" result="effect1_backgroundBlur_210_11"/>
<feBlend mode="normal" in="SourceGraphic" in2="effect1_backgroundBlur_210_11" result="shape"/>
</filter>
</defs>
</svg>
